<svg xmlns="http://www.w3.org/2000/svg" viewBox="0 0 60 60"><defs><style>.cls-1{fill:#da9700;}.cls-2{fill:#ffd226;}.cls-3{fill:none;stroke:#c58400;stroke-miterlimit:10;stroke-width:1.5px;}</style></defs><g id="Objects"><path class="cls-1" d="M21.4,19.25H48a4.37,4.37,0,0,1,1.34.22h4.62c-.15-2.13-1.52-6-3.46-6H22c.27.52-1.56,1.12-1.56,1.77Z"/><path class="cls-1" d="M52.68,45.9h-.63v.64a3.93,3.93,0,0,1-2.26,3.36c2.85-.7,4.08-2.72,4.16-5.91H52.68Z"/><path class="cls-1" d="M54.12,21.08l-.2-2.46-5.06.1c.8.26,0,31.19,0,31.19h.44a4.81,4.81,0,0,0,4.81-4.81Z"/><path class="cls-1" d="M52.05,45.9h1.63V44L54,18.62H51.19a3.24,3.24,0,0,1,.86,2.12Z"/><path class="cls-2" d="M50.19,19.92a4.18,4.18,0,0,0-1.87-1.11A5,5,0,0,0,47,18.62H22.4V17c0-3.58-.17-3.11-.44-3.58a4.2,4.2,0,0,0-3.59-1.91H6.86A3.4,3.4,0,0,0,3.3,15V46.54a3.67,3.67,0,0,0,3.56,3.82H47a4.14,4.14,0,0,0,1.81-.45,4,4,0,0,0,2.26-3.37V22A3,3,0,0,0,50.19,19.92Z"/><path class="cls-3" d="M53.91,16.62a3.46,3.46,0,0,0-3.43-3.19H23a4.2,4.2,0,0,0-3.59-1.91H7.86A3.4,3.4,0,0,0,4.3,15V46.54a3.67,3.67,0,0,0,3.56,3.82H48a4.14,4.14,0,0,0,1.81-.45l0,0c2.83-.71,4.06-2.73,4.14-5.9Z"/></g></svg>