<svg id="_4" data-name="4" xmlns="http://www.w3.org/2000/svg" viewBox="0 0 22 17"><defs><style>.cls-1{fill:#fff;fill-rule:evenodd;}</style></defs><path class="cls-1" d="M14.41,6.41c.22.18.36.07.31-.22l-.16-.94a3.87,3.87,0,0,1,3.85,6l1.49,1a5.66,5.66,0,0,0,1-4.27,5.73,5.73,0,0,0-6.63-4.61l-.16-.92c-.05-.29-.22-.34-.37-.1l-.7,1-.67,1a.57.57,0,0,0,.13.73l1,.67Z"/><path class="cls-1" d="M9.34,15H1.55A.61.61,0,0,1,1,14.05L8.79,3.27A.67.67,0,0,1,10,3.61V14.39A.64.64,0,0,1,9.34,15Z"/><path class="cls-1" d="M12,14.47V9.64a.61.61,0,0,1,1-.41l6.87,4.83c.45.31.2.94-.37.94H12.6A.57.57,0,0,1,12,14.47Z"/></svg>