<svg id="圖層_3" data-name="圖層 3" xmlns="http://www.w3.org/2000/svg" viewBox="0 0 22 17"><defs><style>.cls-1{fill:#fff;fill-rule:evenodd;}</style></defs><path class="cls-1" d="M7.43,6.41c-.22.18-.37.07-.32-.22l.17-.94a3.87,3.87,0,0,0-3.86,6l-1.48,1A5.61,5.61,0,0,1,1,8,5.72,5.72,0,0,1,7.6,3.43l.16-.92c0-.29.23-.34.37-.1l.7,1,.67,1a.55.55,0,0,1-.13.73l-1,.67Z"/><path class="cls-1" d="M12.5,15h7.78a.61.61,0,0,0,.55-.95L13.05,3.27a.67.67,0,0,0-1.21.34V14.39A.63.63,0,0,0,12.5,15Z"/><path class="cls-1" d="M9.84,14.47V9.64a.61.61,0,0,0-1-.41L2,14.06a.52.52,0,0,0,.38.94H9.24A.57.57,0,0,0,9.84,14.47Z"/></svg>