<svg xmlns="http://www.w3.org/2000/svg" viewBox="0 0 32 32"><defs><style>.cls-1{fill:#fff;}</style></defs><g id="圖層_6" data-name="圖層 6"><path class="cls-1" d="M31.37,26.53c-.7,0-1.4,0-2.12,0V15.34l.14,0a1.28,1.28,0,0,0,1.18-.66c.18-.28.37-.55.56-.83a1.09,1.09,0,0,0-.35-1.78L19.94,4.74a2.25,2.25,0,0,0-1.3-.41H13.76a1.93,1.93,0,0,0-1.14.36L11,5.79,8.61,7.42c0-.39,0-.7,0-1A1.11,1.11,0,0,0,7.47,5.32c-.49,0-1,0-1.45,0A1.14,1.14,0,0,0,4.8,6.54c0,1.08,0,2.15,0,3.23a.43.43,0,0,1-.21.41l-2.81,1.9a1.09,1.09,0,0,0-.32,1.7c.18.27.38.53.55.81a1.17,1.17,0,0,0,1.37.68V26.53H3c-.81,0-1.61,0-2.42,0a.57.57,0,0,0,0,1.13H31.16l.36,0a.55.55,0,0,0,.48-.56A.57.57,0,0,0,31.37,26.53Zm-1.44-13a5.23,5.23,0,0,1-.35.52.31.31,0,0,1-.21.09H25.83c.14-.21.24-.38.37-.54a.29.29,0,0,1,.21-.09H29.8ZM16.25,5.47h2.43a1,1,0,0,1,.49.14L29,12.23l.18.14h-1.4a6.09,6.09,0,0,1-1.6,0,5.63,5.63,0,0,1-1.32-.86l-8.6-5.8L16,5.49ZM6,6.48H7.47V8.09c0,.06,0,.14-.07.16-.46.33-.93.64-1.44,1ZM3.26,14l-.18.12-.7-1L4,11.94,13.18,5.7a.71.71,0,0,1,1,0l10.72,7.23.23.16-.69,1-.29-.19c-3.32-2.24-6.64-4.47-10-6.72a.72.72,0,0,0-1,0Zm12.5,12.44h-4V20.2h4ZM23,26.23c0,.08,0,.16,0,.28h-6V19.82c0-.59-.18-.77-.76-.77H11.39c-.61,0-.79.18-.79.78V26.5H4.54v-.34c0-3.78,0-7.56,0-11.34a.49.49,0,0,1,.25-.47l8.68-5.93a.34.34,0,0,1,.48,0l8.84,5.95a.44.44,0,0,1,.22.41Q23,20.5,23,26.23Zm5.07.28H24.16V15.3h3.91Z"/><path class="cls-1" d="M15.25,14H12.3a.58.58,0,0,0-.64.64c0,1,0,2,0,2.95a.58.58,0,0,0,.6.63h3a.57.57,0,0,0,.59-.63c0-1,0-2,0-2.95A.57.57,0,0,0,15.25,14Zm-.54,3.06H12.84V15.17h1.87Z"/><path class="cls-1" d="M21.49,14H18.54a.58.58,0,0,0-.64.64c0,1,0,2,0,2.95a.58.58,0,0,0,.6.63h3a.58.58,0,0,0,.6-.63V14.63A.58.58,0,0,0,21.49,14ZM21,17H19.08V15.17H21Z"/><path class="cls-1" d="M9,13.87H6.06a.58.58,0,0,0-.64.64c0,1,0,2,0,3a.56.56,0,0,0,.59.63c1,0,2,0,3,0a.58.58,0,0,0,.61-.63v-3A.59.59,0,0,0,9,13.87Zm-.53,3.06H6.6V15.05H8.48Z"/><path class="cls-1" d="M9,19.12c-1,0-2,0-3,0a.58.58,0,0,0-.62.66c0,1,0,1.93,0,2.9a.59.59,0,0,0,.66.67H9a.58.58,0,0,0,.64-.64c0-1,0-1.95,0-2.93A.58.58,0,0,0,9,19.12Zm-.55,3.06H6.59V20.3H8.47Z"/><path class="cls-1" d="M21.5,19.12c-1,0-2,0-3,0a.58.58,0,0,0-.62.64c0,1,0,2,0,2.95a.58.58,0,0,0,.64.64h2.95a.58.58,0,0,0,.64-.64V19.78A.59.59,0,0,0,21.5,19.12ZM21,22.19H19.07V20.3H21Z"/></g></svg>