<svg xmlns="http://www.w3.org/2000/svg" viewBox="0 0 32 32"><defs><style>.cls-1{fill:#fff;}</style></defs><g id="圖層_6" data-name="圖層 6"><path class="cls-1" d="M24.33,8.15h2A2.63,2.63,0,0,1,29,10a2.23,2.23,0,0,1,.09.63V22.06a2.66,2.66,0,0,1-2.42,2.58,3.77,3.77,0,0,1-.67,0H19.41c.27,1,.53,1.93.79,2.9h1c.21,0,.43,0,.65,0a.72.72,0,0,1,.73.68.73.73,0,0,1-.74.68H10.18a.72.72,0,0,1-.74-.69.73.73,0,0,1,.76-.67c.46,0,.93,0,1.39,0h.21c.26-1,.53-1.91.8-2.89H5.92A2.84,2.84,0,0,1,3,22.52a2.46,2.46,0,0,1,0-.54V10.68A2.38,2.38,0,0,1,4.76,8.3a4,4,0,0,1,1-.13c.55,0,1.1,0,1.65,0h.25a1.91,1.91,0,0,1-.22-.6,1.63,1.63,0,0,1,.06-.88,8.4,8.4,0,0,1,1-1.57,2,2,0,0,1,2.19-.5c.24.07.48.16.72.22a.39.39,0,0,0,.26,0c.5-.25,1-.5,1.47-.77a.36.36,0,0,0,.17-.2c.06-.24.09-.48.15-.71a1.82,1.82,0,0,1,1.79-1.38,13.61,13.61,0,0,1,1.69,0,1.79,1.79,0,0,1,1.67,1.54,1,1,0,0,0,.79,1,4.52,4.52,0,0,1,.94.51.36.36,0,0,0,.32,0,6.68,6.68,0,0,1,1.14-.32,2,2,0,0,1,2,.86c.23.33.44.67.65,1A1.54,1.54,0,0,1,24.4,8ZM8.71,9.54H5.78c-.85,0-1.3.4-1.3,1.15v8.56h23v-8.6c0-.7-.47-1.11-1.26-1.11h-3c0,.4-.05.78-.06,1.17a.33.33,0,0,0,.12.24c.23.2.5.37.73.57a1.59,1.59,0,0,1,.35,2c-.22.37-.45.73-.7,1.09a1.92,1.92,0,0,1-2,.84,9.6,9.6,0,0,1-1.17-.31.48.48,0,0,0-.29,0c-.49.24-1,.49-1.45.74a.36.36,0,0,0-.17.2c-.06.22-.09.44-.14.65a1.7,1.7,0,0,1-1.49,1.4,8.81,8.81,0,0,1-1.78.06,1.8,1.8,0,0,1-1.75-1.09,4.27,4.27,0,0,1-.24-.95.36.36,0,0,0-.26-.3c-.46-.22-.91-.46-1.36-.7a.39.39,0,0,0-.35,0c-.3.1-.6.21-.91.28A2,2,0,0,1,8.62,15a5.39,5.39,0,0,1-1.08-1.53,1.53,1.53,0,0,1,.41-2c.23-.2.49-.37.73-.57a.29.29,0,0,0,.09-.2C8.76,10.36,8.73,10,8.71,9.54Zm14.4-2.29C23.05,7.14,23,7.05,23,7l-.56-.87c-.17-.25-.32-.3-.64-.19l-1.16.38a.83.83,0,0,1-.83-.13,6.05,6.05,0,0,0-1.87-1,.82.82,0,0,1-.66-.73c-.05-.33-.12-.65-.19-1s-.2-.39-.54-.39-.72,0-1.08,0-.46.09-.52.4-.14.66-.19,1a.8.8,0,0,1-.62.69,6.07,6.07,0,0,0-1.89,1,.88.88,0,0,1-.86.12l-1.14-.37c-.35-.12-.48-.07-.68.22S9.2,6.68,9,7s-.14.43.13.63l.9.66a.69.69,0,0,1,.33.74,4.74,4.74,0,0,0,0,2,.66.66,0,0,1-.3.71c-.31.22-.61.46-.91.69s-.31.34-.12.63.35.55.53.82a.46.46,0,0,0,.65.21l1.11-.38a.89.89,0,0,1,.9.13,6,6,0,0,0,1.89,1,.79.79,0,0,1,.61.69c.06.33.12.67.19,1s.19.38.52.38.72,0,1.08,0,.49-.09.55-.41.13-.66.19-1a.75.75,0,0,1,.6-.65,6.11,6.11,0,0,0,1.93-1,.86.86,0,0,1,.86-.12l1.13.38c.33.1.48.06.66-.21L23,13c.17-.27.14-.4-.12-.59l-.94-.7a.66.66,0,0,1-.31-.73,4.77,4.77,0,0,0,0-2A.69.69,0,0,1,22,8.23c.31-.22.6-.44.89-.68A1.87,1.87,0,0,0,23.11,7.25ZM4.48,20.65V22c0,.87.55,1.35,1.53,1.35h20A1.29,1.29,0,0,0,27.52,22V20.65Zm14.1,6.94a.43.43,0,0,1,0-.05c-.25-.91-.5-1.82-.76-2.73,0,0-.12-.11-.19-.11H14.36c-.13,0-.18,0-.21.15-.09.37-.2.75-.31,1.12-.14.54-.29,1.07-.44,1.62Z"/><path class="cls-1" d="M16,6.75a3.43,3.43,0,0,1,3.62,3.17,3.43,3.43,0,0,1-3.71,3.3A3.45,3.45,0,0,1,12.36,10,3.47,3.47,0,0,1,16,6.75Zm0,5.09A2,2,0,0,0,18.09,10,2,2,0,0,0,16,8.12,2,2,0,0,0,13.91,10,2,2,0,0,0,16,11.84Z"/></g></svg>