<svg xmlns="http://www.w3.org/2000/svg" viewBox="0 0 60 60"><defs><style>.cls-1{fill:#fff;stroke-linecap:round;stroke-linejoin:round;}.cls-1,.cls-3{stroke:#7b787b;}.cls-2,.cls-3{fill:#7b787b;}.cls-3{stroke-miterlimit:10;}</style></defs><g id="Objects"><path class="cls-1" d="M46.41,54.5H13.59a3,3,0,0,1-3-3V9.12a3,3,0,0,1,3-3H41.66a3,3,0,0,1,2,.77l4.76,4.29a3,3,0,0,1,1,2.23V51.49A3,3,0,0,1,46.41,54.5Z"/><path class="cls-2" d="M49.42,13.77,42,14.09a1,1,0,0,1-1-.9l-.37-6.92,2-.08L49.09,12Z"/><rect class="cls-3" x="17.58" y="13.75" width="17.19" height="0.64"/><rect class="cls-3" x="17.58" y="46.58" width="9.55" height="0.64"/><rect class="cls-3" x="17.58" y="22.12" width="25.47" height="0.64"/><rect class="cls-3" x="17.58" y="28.48" width="25.47" height="0.64"/><rect class="cls-3" x="17.58" y="34.49" width="25.47" height="0.64"/><rect class="cls-3" x="17.58" y="40.85" width="25.47" height="0.64"/></g></svg>