<svg id="_4" data-name="4" xmlns="http://www.w3.org/2000/svg" viewBox="0 0 90.8 90.8"><defs><style>.cls-1{fill:#fff;stroke:#fff;stroke-miterlimit:10;stroke-width:2px;fill-rule:evenodd;}</style></defs><path class="cls-1" d="M10,36.74l0-23.18A3.6,3.6,0,0,1,13.62,10L36.8,10c2.09,0,3.74,1.22,3.74,3.32v.87c-.13,1.7-1,3-2.75,2.91-5.66,0-11.37,0-17.08,0a3.62,3.62,0,0,0-3.62,3.61c0,5.75,0,11.42,0,17.08.08,1.74-1.22,2.61-3,2.79l-.83,0c-2.09,0-3.31-1.66-3.3-3.75Z"/><path class="cls-1" d="M54.31,9.94l23.18,0a3.59,3.59,0,0,1,3.61,3.62l0,23.18c0,2.09-1.22,3.75-3.31,3.74H76.9c-1.7-.13-3-1-2.92-2.75,0-5.66,0-11.37,0-17.07a3.62,3.62,0,0,0-3.62-3.63H53.3c-1.74.08-2.61-1.22-2.78-3l0-.82c0-2.1,1.66-3.31,3.75-3.31Z"/><path class="cls-1" d="M81.1,53.73l0,23.18a3.59,3.59,0,0,1-3.62,3.61l-23.18,0c-2.09,0-3.74-1.22-3.74-3.31v-.87c.13-1.7,1-3,2.75-2.92,5.66,0,11.37,0,17.08,0A3.62,3.62,0,0,0,74,69.8c0-5.75,0-11.41,0-17.08-.08-1.74,1.22-2.61,3-2.78l.83,0c2.09,0,3.31,1.66,3.3,3.75Z"/><path class="cls-1" d="M36.77,80.54l-23.18,0A3.59,3.59,0,0,1,10,76.89l0-23.18C10,51.62,11.22,50,13.31,50h.87c1.7.13,3,1,2.92,2.75,0,5.66,0,11.37,0,17.08a3.61,3.61,0,0,0,3.62,3.62l17.08,0c1.74-.09,2.61,1.22,2.78,3l0,.83c0,2.09-1.66,3.31-3.75,3.31Z"/></svg>